<svg width="100%" height="100%" viewBox="0 0 32 32" xmlns="http://www.w3.org/2000/svg">
  <path d="M8,-0l16,-0c4.415,-0 8,3.585 8,8l-0,16c-0,4.415 -3.585,8 -8,8l-16,0c-4.415,0 -8,-3.585 -8,-8l-0,-16c-0,-4.415 3.585,-8 8,-8Zm19.004,10.507c-0,-3.032 -2.462,-5.494 -5.495,-5.494l-11.011,-0c-3.033,-0 -5.494,2.462 -5.494,5.494l-0,10.988c-0,3.032 2.461,5.494 5.494,5.494l11.011,0c3.033,0 5.495,-2.462 5.495,-5.494l-0,-10.988Z" style="fill:url(#lg1);"/>
  <path d="M21.487,5.036l0.263,-0c3.174,-0 5.75,2.576 5.75,5.75l-0,11.554c-0,3.173 -2.576,5.75 -5.75,5.75l-11.5,-0c-3.174,-0 -5.75,-2.577 -5.75,-5.75l0,-11.554c0,-3.174 2.576,-5.75 5.75,-5.75l0.263,-0c-3.028,-0 -5.487,2.458 -5.487,5.487l-0,11.026c-0,3.028 2.459,5.487 5.487,5.487l10.974,-0c3.028,-0 5.487,-2.459 5.487,-5.487l0,-11.026c0,-3.029 -2.459,-5.487 -5.487,-5.487Z" style="fill:url(#lg2);"/>
  <path d="M21.524,5.036l0.213,-0c3.1,-0 5.618,2.505 5.618,5.591l-0,11.182c-0,3.086 -2.518,5.592 -5.618,5.592l-11.474,-0c-3.1,-0 -5.618,-2.506 -5.618,-5.592l0,-11.182c0,-3.086 2.518,-5.591 5.618,-5.591l0.262,-0c-3.035,-0 -5.499,2.452 -5.499,5.473l0,10.998c0,3.021 2.464,5.474 5.499,5.474l10.999,-0c3.035,-0 5.499,-2.453 5.499,-5.474l0,-10.998c0,-3.021 -2.464,-5.473 -5.499,-5.473Z" style="fill:url(#lg3);"/>
  <path d="M28.5,10.756l0,12.559c0,3.45 -2.801,6.25 -6.25,6.25l-12.5,0c-3.449,0 -6.25,-2.8 -6.25,-6.25l-0,-12.559c-0,-3.449 2.801,-6.25 6.25,-6.25l12.5,0c3.449,0 6.25,2.801 6.25,6.25Zm-1.526,-0.233c0,-3.029 -2.459,-5.487 -5.487,-5.487l-10.974,-0c-3.028,-0 -5.487,2.458 -5.487,5.487l-0,11.026c-0,3.028 2.459,5.487 5.487,5.487l10.974,-0c3.028,-0 5.487,-2.459 5.487,-5.487l0,-11.026Z" style="fill:url(#lg4);"/>
  <path d="M26.974,10.523l0,11.026c0,3.028 -2.459,5.487 -5.487,5.487l-10.974,-0c-3.028,-0 -5.487,-2.459 -5.487,-5.487l-0,-11.026c-0,-3.029 2.459,-5.487 5.487,-5.487l10.974,-0c3.028,-0 5.487,2.458 5.487,5.487Z" class="iconfill" stroke-width="0.05" stroke="url(#lgo)"/>
  <defs>
    <linearGradient id="lg1" x1="0" y1="0" x2="1" y2="0" gradientUnits="userSpaceOnUse" gradientTransform="matrix(15.6343,34.2752,-34.4371,15.6343,7.94693,2.44249e-15)"><stop offset="0" style="stop-color:rgb(0,207,255);stop-opacity:1"/><stop offset="1" style="stop-color:rgb(62,0,62);stop-opacity:1"/></linearGradient>
    <linearGradient id="lg2" x1="0" y1="0" x2="1" y2="0" gradientUnits="userSpaceOnUse" gradientTransform="matrix(6.36559e-15,22.365,-22.2357,6.26906e-15,16.0247,5.03568)"><stop offset="0" style="stop-color:rgb(0,52,84);stop-opacity:0"/><stop offset="1" style="stop-color:black;stop-opacity:1"/></linearGradient>
    <linearGradient id="lg3" x1="0" y1="0" x2="1" y2="0" gradientUnits="userSpaceOnUse" gradientTransform="matrix(-1.90646e-14,23.0543,-23.1087,-1.91096e-14,16,5.03568)"><stop offset="0" style="stop-color:black;stop-opacity:0"/><stop offset="0.42" style="stop-color:black;stop-opacity:0.13"/><stop offset="1" style="stop-color:black;stop-opacity:0.4"/></linearGradient>
    <linearGradient id="lg4" x1="0" y1="0" x2="1" y2="0" gradientUnits="userSpaceOnUse" gradientTransform="matrix(1.53442e-15,25.059,-25.1181,1.53804e-15,16,4.50619)"><stop offset="0" style="stop-color:black;stop-opacity:0"/><stop offset="1" style="stop-color:black;stop-opacity:0.1"/></linearGradient>
    <linearGradient id="lgo" x1="0" y1="0" x2="1" y2="0" gradientUnits="userSpaceOnUse" gradientTransform="matrix(6.46729,24.0566,-24.1134,6.48255,13.2824,4.03633)"><stop offset="0" style="stop-color:rgb(79,79,79);stop-opacity:0.5"/><stop offset="1" style="stop-color:rgb(0,0,0);stop-opacity:0.6"/></linearGradient>
    <linearGradient id="lgl" x1="0" y1="0" x2="1" y2="0" gradientUnits="userSpaceOnUse" gradientTransform="matrix(6.46729,24.0566,-24.1134,6.48255,13.2824,4.03633)"><stop offset="0" style="stop-color:rgb(183,183,183);stop-opacity:0.4"/><stop offset="1" style="stop-color:rgb(23,23,23);stop-opacity:0.1"/></linearGradient>
    <linearGradient id="lgd" x1="0" y1="0" x2="1" y2="0" gradientUnits="userSpaceOnUse" gradientTransform="matrix(6.46729,24.0566,-24.1134,6.48255,13.2824,4.03633)"><stop offset="0" style="stop-color:white;stop-opacity:0.4"/><stop offset="1" style="stop-color:rgb(213,213,213);stop-opacity:0.1"/></linearGradient>
  </defs>
  <style>
    .iconfill { fill: url(#lgd); }
    @media (prefers-color-scheme: light) { .iconfill { fill: url(#lgl); } }
  </style>
</svg>
