<svg width="100%" height="100%" viewBox="0 0 16 16" xmlns="http://www.w3.org/2000/svg" style="fill-rule:evenodd;clip-rule:evenodd;stroke-linejoin:round;stroke-miterlimit:2;">
    <path d="M4,0L12,0C14.208,0 16,1.792 16,4L16,12C16,14.208 14.208,16 12,16L4,16C1.792,16 -0,14.208 -0,12L-0,4C-0,1.792 1.792,0 4,0ZM13.502,5.254C13.502,3.737 12.271,2.506 10.755,2.506L5.249,2.506C3.733,2.506 2.502,3.737 2.502,5.254L2.502,10.748C2.502,12.264 3.733,13.495 5.249,13.495L10.755,13.495C12.271,13.495 13.502,12.264 13.502,10.748L13.502,5.254Z" style="fill:rgb(0,0,0);"/>
</svg>
